<?xml version="1.0" encoding="utf-8"?>
<!-- Generator: Adobe Illustrator 21.1.0, SVG Export Plug-In . SVG Version: 6.00 Build 0)  -->
<svg version="1.1"
	 id="svg2" xmlns:cc="http://creativecommons.org/ns#" xmlns:dc="http://purl.org/dc/elements/1.1/" xmlns:rdf="http://www.w3.org/1999/02/22-rdf-syntax-ns#" xmlns:svg="http://www.w3.org/2000/svg"
	 xmlns="http://www.w3.org/2000/svg" xmlns:xlink="http://www.w3.org/1999/xlink" x="0px" y="0px" viewBox="0 0 255 237"
	 style="enable-background:new 0 0 255 237;" xml:space="preserve">
<style type="text/css">
	.st0{clip-path:url(#SVGID_2_);}
        .st1{fill:#dc3545;}
	.st2{fill:#FFFFFF;}
</style>
<g id="g10" transform="matrix(1.3333333,0,0,-1.3333333,0,1056)">
	<g id="g12">
		<g>
			<defs>
				<rect id="SVGID_1_" x="-192" y="-83.2" width="816" height="1056"/>
			</defs>
			<clipPath id="SVGID_2_">
				<use xlink:href="#SVGID_1_"  style="overflow:visible;"/>
			</clipPath>
			<g id="g14" class="st0">
				<g id="g20" transform="translate(251.731,570.0981)">
					<path id="path22" class="st1" d="M-90,48.8c4.3,18.5,4,23.3,3.2,30.4c-36.4-13.5-128.3-9.9-144.6,6.4
						c-18.6,18.6-17.1,102.5,0,119.7c17.1,17.1,139.8,16.2,155.6,0.4c14.8-14.8,14.3-89,6.9-115.8C-69.6,87.5-74,65.1-90,48.8"/>
				</g>
				<g id="g24" transform="translate(144.6772,632.4819)">
					<path id="path26" class="st2" d="M-90,48.8c-9.1,0-16.5,1.5-22.3,4.6c-7.4,4-11,10.3-11,18.8v4.4c0,0,0.6,3.7,5,3.7
						s4.6-3.7,4.6-3.7v-4.1c0-10,7.9-15,23.7-15c5.8,0,10.5,0.8,14.1,2.4c4.3,1.8,6.4,4.5,6.4,8.1c0,2.6-0.7,4.5-2,5.7
						c-1.3,1.2-3.7,2.3-7.1,3.2c-2,0.5-6.7,1.5-14.1,3c-8.8,1.7-14.7,3.4-17.9,4.9c-6.9,3.3-10.3,8.2-10.3,14.8
						c0,12.3,9.7,18.4,29.1,18.4c20.2,0,30.4-6.3,30.7-22.8c0,0-0.3-3.4-4.6-3.4c-4.3,0-4.8,3.4-4.8,3.4c-0.5,7.1-2.5,9.6-6.2,11.4
						c-3.3,1.7-8.3,2.6-15,2.6c-13,0-19.4-3.2-19.4-9.7c0-3.1,1.5-5.4,4.6-6.9c2.5-1.2,7-2.3,13.3-3.4c12.4-2.1,20.8-4.3,25.1-6.7
						c5.7-3.2,8.5-8.2,8.5-14.8c0-6.8-3.6-11.8-10.7-15.1C-76,50.1-82.4,48.8-90,48.8"/>
				</g>
				<g id="g28" transform="translate(177.9634,636.1973)">
					<path id="path30" class="st2" d="M-90,48.8V94c0,0,0.7,3,4.8,3c4.1,0,4.8-3,4.8-3V48.8c0,0-1.2-3-4.8-3
						C-88.8,45.7-90,48.8-90,48.8 M-85.4,100.1c-2.1,0-3.7,1.2-4.6,3.6v7.4c1.1,2.4,2.7,3.6,4.6,3.6c1.5,0,3.2-1,5-3.1v-8.5
						C-82.1,101.1-83.8,100.1-85.4,100.1"/>
				</g>
				<g id="g32" transform="translate(231.9653,669.665)">
					<path id="path34" class="st2" d="M-90,48.8c-3,3.3-7.2,4.9-12.6,4.9c-5.6,0-10-1.6-13.2-4.8c-3.2-3.2-4.8-7.4-4.8-12.7
						c0-12,6-18,18-18c5.5,0,9.8,1.7,12.9,5c2.9,3.1,4.3,7.4,4.3,12.8C-85.5,41.2-87,45.5-90,48.8 M-82.7,17.3
						c-4.9-5.2-11.7-7.8-20.4-7.8c-7,0-12.9,1.9-17.6,5.7V-3.5c0,0-0.7-2.5-5-2.5c-4.3,0-4.7,2.5-4.7,2.5v64.3c0,0,0.8,2.7,5.1,2.7
						c4.3,0,4.6-2.7,4.6-2.7v-4c4.7,3.7,10.6,5.6,17.5,5.6c8.6,0,15.4-2.5,20.4-7.5c4.6-4.8,6.9-11.1,6.9-18.7
						C-75.9,28.3-78.2,22-82.7,17.3"/>
				</g>
				<g id="g36" transform="translate(248.0532,636.0581)">
					<path id="path38" class="st2" d="M-90,48.8l0.1,45.3c0,0,0.6,3,4.8,3s4.8-3,4.8-3l-0.1-45.3c0,0-1.1-2.9-4.8-2.9
						S-90,48.8-90,48.8 M-85.3,100.2c-2.1,0-3.7,1.2-4.6,3.6v7.4c1.1,2.4,2.7,3.6,4.6,3.6c1.5,0,3.2-1,5-3.1v-8.5
						C-82,101.2-83.7,100.2-85.3,100.2"/>
				</g>
			</g>
		</g>
	</g>
</g>
</svg>
